<svg width="138" height="36" viewBox="0 0 138 36" fill="none" xmlns="http://www.w3.org/2000/svg">
<path d="M12.144 9.272V11.048H7.584V26H5.4V11.048H0.816V9.272H12.144ZM27.7204 9.272V26H25.5364V18.416H17.0164V26H14.8324V9.272H17.0164V16.616H25.5364V9.272H27.7204ZM41.3376 22.28H34.0416L32.6976 26H30.3936L36.4416 9.368H38.9616L44.9856 26H42.6816L41.3376 22.28ZM40.7136 20.504L37.6896 12.056L34.6656 20.504H40.7136ZM57.9174 9.272V11.048H53.3574V26H51.1734V11.048H46.5894V9.272H57.9174Z" fill="white"/>
<path d="M79.3258 9.152V26H75.2218V15.896L71.4538 26H68.1418L64.3498 15.872V26H60.2458V9.152H65.0938L69.8218 20.816L74.5018 9.152H79.3258ZM90.2451 26.168C88.6611 26.168 87.2051 25.8 85.8771 25.064C84.5651 24.328 83.5171 23.304 82.7331 21.992C81.9651 20.664 81.5811 19.176 81.5811 17.528C81.5811 15.88 81.9651 14.4 82.7331 13.088C83.5171 11.776 84.5651 10.752 85.8771 10.016C87.2051 9.28 88.6611 8.912 90.2451 8.912C91.8291 8.912 93.2771 9.28 94.5891 10.016C95.9171 10.752 96.9571 11.776 97.7091 13.088C98.4771 14.4 98.8611 15.88 98.8611 17.528C98.8611 19.176 98.4771 20.664 97.7091 21.992C96.9411 23.304 95.9011 24.328 94.5891 25.064C93.2771 25.8 91.8291 26.168 90.2451 26.168ZM90.2451 22.424C91.5891 22.424 92.6611 21.976 93.4611 21.08C94.2771 20.184 94.6851 19 94.6851 17.528C94.6851 16.04 94.2771 14.856 93.4611 13.976C92.6611 13.08 91.5891 12.632 90.2451 12.632C88.8851 12.632 87.7971 13.072 86.9811 13.952C86.1811 14.832 85.7811 16.024 85.7811 17.528C85.7811 19.016 86.1811 20.208 86.9811 21.104C87.7971 21.984 88.8851 22.424 90.2451 22.424ZM116.96 9.152L110.984 26H105.848L99.8723 9.152H104.24L108.416 21.872L112.616 9.152H116.96ZM122.78 9.152V26H118.676V9.152H122.78ZM129.858 12.44V15.848H135.354V19.016H129.858V22.712H136.074V26H125.754V9.152H136.074V12.44H129.858Z" fill="#CC0811"/>
</svg>
