<svg width="500" height="750" viewBox="0 0 500 750" fill="none" xmlns="http://www.w3.org/2000/svg">
<rect width="500" height="750" rx="12" fill="#171717"/>
<path d="M291.25 363.75H237.855L288.438 350.395C288.916 350.269 289.365 350.049 289.759 349.749C290.152 349.448 290.482 349.073 290.73 348.644C290.977 348.215 291.137 347.741 291.201 347.25C291.265 346.759 291.23 346.261 291.1 345.783L287.275 331.72C286.749 329.828 285.498 328.22 283.794 327.243C282.09 326.267 280.07 326.001 278.172 326.503L206.786 345.347C205.835 345.594 204.944 346.027 204.163 346.623C203.382 347.219 202.728 347.964 202.239 348.816C201.747 349.657 201.429 350.588 201.305 351.554C201.18 352.521 201.251 353.502 201.513 354.441L205 367.294C205 367.359 205 367.43 205 367.5V408.75C205 410.739 205.79 412.647 207.197 414.053C208.603 415.46 210.511 416.25 212.5 416.25H287.5C289.489 416.25 291.397 415.46 292.803 414.053C294.21 412.647 295 410.739 295 408.75V367.5C295 366.505 294.605 365.552 293.902 364.848C293.198 364.145 292.245 363.75 291.25 363.75ZM280.075 333.75L282.888 344.095L272.284 346.908L259.103 339.295L280.075 333.75ZM248.814 342L261.995 349.612L244.68 354.183L231.498 346.58L248.814 342ZM211.595 362.916L208.783 352.566L221.205 349.284L234.386 356.906L211.595 362.916ZM287.5 408.75H212.5V371.25H287.5V408.75Z" fill="#404040"/>
</svg>
